<svg xmlns="http://www.w3.org/2000/svg" width="17.462" height="19.629" viewBox="0 0 17.462 19.629"><path d="M5.884,18.653a4.1,4.1,0,0,1-.86-.816c-.109-.13-.551-.684-.466-.579A2.713,2.713,0,0,0,3.5,16.309a1,1,0,1,1,.675-1.883,4.314,4.314,0,0,1,1.948,1.588c-.094-.117.339.427.433.539A2.384,2.384,0,0,0,7,16.991a1.866,1.866,0,0,0,1.151.14,4.607,4.607,0,0,1,.2-1.1C5.381,15.31,3.7,13.395,3.7,9.639A5.464,5.464,0,0,1,4.759,6.348a5.193,5.193,0,0,1,.3-3.191,1,1,0,0,1,.629-.583A1.408,1.408,0,0,1,5.9,2.526a5.352,5.352,0,0,1,3.416,1.1,11.859,11.859,0,0,1,5.371,0,5.274,5.274,0,0,1,3.422-1.1,1.43,1.43,0,0,1,.218.051,1,1,0,0,1,.617.579,5.193,5.193,0,0,1,.3,3.191A5.433,5.433,0,0,1,20.3,9.639c0,3.757-1.674,5.665-4.642,6.392a4.79,4.79,0,0,1,.191,1.38c0,.664,0,1.3-.007,2.01,0,.19,0,.393,0,.706a1,1,0,0,1-.019,1.957,1.565,1.565,0,0,1-1.983-1.524c0-.09,0-.219,0-.447,0-.313,0-.516.005-.7,0-.708.007-1.338.007-2a1.8,1.8,0,0,0-.426-1.361,1,1,0,0,1,.541-1.751c2.966-.333,4.336-1.482,4.336-4.66a3.431,3.431,0,0,0-.913-2.4A1,1,0,0,1,17.2,6.191a2.748,2.748,0,0,0,.1-1.614l-.009,0a6.732,6.732,0,0,0-1.859.949,1,1,0,0,1-.833.136,9.8,9.8,0,0,0-5.184,0,1,1,0,0,1-.829-.133,6.855,6.855,0,0,0-1.869-.947A2.716,2.716,0,0,0,6.8,6.191a1,1,0,0,1-.189,1.045,3.457,3.457,0,0,0-.913,2.4c0,3.172,1.371,4.329,4.322,4.66a1,1,0,0,1,.545,1.748,2.089,2.089,0,0,0-.429,1.364v3.149a1.57,1.57,0,0,1-1.96,1.529,1,1,0,0,1-.04-1.962v-.99A3.527,3.527,0,0,1,5.884,18.653Z" transform="translate(-2.839 -2.497)" fill="#fff"/></svg>