<svg xmlns="http://www.w3.org/2000/svg" width="20" height="20" viewBox="0 0 20 20"><path d="M19.989,11.572a7.959,7.959,0,0,0-1.572-4.351,9.757,9.757,0,0,1-.921.871A13.156,13.156,0,0,1,14.183,10.1c.166.35.319.689.454,1.009v0c.026.062.049.118.093.229l.016.041a19.145,19.145,0,0,1,4.656.1Q19.713,11.526,19.989,11.572ZM10.6,4.121c.174.245.356.507.576.832.613.905,1.216,1.86,1.78,2.841q.172.3.336.6a11.061,11.061,0,0,0,3.047-1.766,7.884,7.884,0,0,0,.8-.755A7.968,7.968,0,0,0,12,4,8.051,8.051,0,0,0,10.6,4.121ZM4.253,10c.579-.013,1.232-.048,2.04-.122a31.53,31.53,0,0,0,4.862-.822c-.583-1.016-1.216-2.029-1.86-3-.31-.466-.611-.9-.84-1.227A8.018,8.018,0,0,0,4.253,10Zm1.531,7.038a14.21,14.21,0,0,1,1.574-1.9,12.638,12.638,0,0,1,5.156-3.29l.062-.018c-.165-.364-.32-.689-.476-.995a30.14,30.14,0,0,1-5.7,1.042C5.463,11.961,4.62,12,4,12A7.966,7.966,0,0,0,5.784,17.036ZM15,19.417c-.1-.542-.238-1.146-.415-1.843a35.951,35.951,0,0,0-1.217-3.866,12.676,12.676,0,0,0-4.83,3.057A9.77,9.77,0,0,0,7.226,18.42a8.012,8.012,0,0,0,7.778,1Zm1.873-1.075a8,8,0,0,0,2.987-4.871,12.512,12.512,0,0,0-1.246-.236,12.025,12.025,0,0,0-3.179-.033c.452,1.275.823,2.531,1.12,3.734C16.69,17.461,16.8,17.936,16.878,18.341ZM12,22A10,10,0,1,1,22,12,10,10,0,0,1,12,22Z" transform="translate(-2 -2)" fill="#fff"/></svg>